/* XPM */
static char *result[] = {
/* columns rows colors chars-per-pixel */
"68 64 224 2 ",
"   c #A5C364",
".  c #A6C364",
"X  c #AAC666",
"o  c #ABC666",
"O  c #ACC767",
"+  c #AEC867",
"@  c #AEC868",
"#  c #B8CF62",
"$  c #B5CD6B",
"%  c #B6CD6B",
"&  c #B7CE6C",
"*  c #B9D064",
"=  c #BAD166",
"-  c #BBD167",
";  c #BBD168",
":  c #BCD168",
">  c #BCD169",
",  c #BCD269",
"<  c #BDD26A",
"1  c #BDD26B",
"2  c #B9D06D",
"3  c #BAD06D",
"4  c #BBD06D",
"5  c #BBD16E",
"6  c #BDD26C",
"7  c #BED36C",
"8  c #BED36D",
"9  c #BCD26E",
"0  c #BDD26E",
"q  c #BDD26F",
"w  c #BFD36E",
"e  c #BED36F",
"r  c #BFD36F",
"t  c #BFD46F",
"y  c #B5CC78",
"u  c #BFD370",
"i  c #BFD470",
"p  c #C0D46F",
"a  c #C0D470",
"s  c #C1D570",
"d  c #C0D471",
"f  c #C1D571",
"g  c #C2D571",
"h  c #C2D671",
"j  c #C3D671",
"k  c #C1D573",
"l  c #C2D573",
"z  c #C4D672",
"x  c #C4D772",
"c  c #C2D574",
"v  c #C3D674",
"b  c #C4D677",
"n  c #C4D777",
"m  c #C4D778",
"M  c #C5D778",
"N  c #C6D77F",
"B  c #C6D879",
"V  c #C6D87A",
"C  c #C7D97C",
"Z  c #C6D87F",
"A  c #C7D87F",
"S  c #C8D87A",
"D  c #C8D97D",
"F  c #C8D97E",
"G  c #C9D97E",
"H  c #C9DA7F",
"J  c #4D478C",
"K  c #535391",
"L  c #575191",
"P  c #555793",
"I  c #555595",
"U  c #5F5A94",
"Y  c #595A99",
"T  c #5A5B9A",
"R  c #605B96",
"E  c #615C96",
"W  c #5F6198",
"Q  c #60639F",
"!  c #62669F",
"~  c #6269A1",
"^  c #636CA2",
"/  c #6972A1",
"(  c #6B75A4",
")  c #6C76AC",
"_  c #6D78AD",
"`  c #6E7CAE",
"'  c #717CAB",
"]  c #707AAE",
"[  c #707EB0",
"{  c #7F80AB",
"}  c #7F87A9",
"|  c #7886B3",
" . c #7987B4",
".. c #7B8AB6",
"X. c #7E91C0",
"o. c #8189AA",
"O. c #838CAE",
"+. c #848CAE",
"@. c #898FB5",
"#. c #908FB3",
"$. c #9394B6",
"%. c #9F9DB9",
"&. c #9EA5B7",
"*. c #9FA6B9",
"=. c #A2A1B8",
"-. c #A1A1BB",
";. c #A3A2BC",
":. c #A4A6BD",
">. c #A7AABD",
",. c #A6ACBF",
"<. c #BABFB2",
"1. c #BFC5B5",
"2. c #C6D780",
"3. c #C6D880",
"4. c #CADA80",
"5. c #CADA81",
"6. c #CBDB81",
"7. c #CBDB82",
"8. c #CEDD87",
"9. c #CBDB8B",
"0. c #CADA8C",
"q. c #CADB8C",
"w. c #CCDB8D",
"e. c #CCDC8D",
"r. c #CCDD8F",
"t. c #CDDD8F",
"y. c #D1DE8A",
"u. c #D1DF8A",
"i. c #D1DF8B",
"p. c #DBE598",
"a. c #DBE699",
"s. c #DBE69A",
"d. c #DCE69A",
"f. c #DEE79C",
"g. c #DEE79D",
"h. c #DEE89E",
"j. c #DFE89F",
"k. c #C4CEAD",
"l. c #CDDAA1",
"z. c #CEDCA5",
"x. c #C9D1AF",
"c. c #CCD4B0",
"v. c #CCD5B2",
"b. c #CDD7B3",
"n. c #CFDAB6",
"m. c #D3DFB1",
"M. c #D2DDB8",
"N. c #D8E3A9",
"B. c #D8E3AA",
"V. c #D9E3AA",
"C. c #D9E4AB",
"Z. c #D9E4AD",
"A. c #DAE5AD",
"S. c #D5E0B2",
"D. c #E0E9A0",
"F. c #E1E9A1",
"G. c #E4EBA4",
"H. c #E4EBA5",
"J. c #E5ECA6",
"K. c #E5ECA7",
"L. c #E6ECA7",
"P. c #E6EDA7",
"I. c #E6EDA8",
"U. c #8194C3",
"Y. c #8599C7",
"T. c #8B9EC8",
"R. c #8C9FC9",
"E. c #93A4CB",
"W. c #A6AFC1",
"Q. c #A9AFC1",
"!. c #A9AFC2",
"~. c #A7B0C2",
"^. c #ACB3C1",
"/. c #ADB4C7",
"(. c #AEB8CA",
"). c #B4BDCB",
"_. c #B1BBCC",
"`. c #B2BACC",
"'. c #B0BCCC",
"]. c #B1BDCD",
"[. c #B3BCCD",
"{. c #B8C1D3",
"}. c #BBC6D6",
"|. c #BCC6D7",
" X c #BCC7D7",
".X c #BEC8D5",
"XX c #C6CECF",
"oX c #CBCDCA",
"OX c #C0CAD2",
"+X c #CAC8D0",
"@X c #CBCBD2",
"#X c #CCCCD2",
"$X c #CED1D1",
"%X c #CED1D5",
"&X c #CFD2D5",
"*X c #D1D4D7",
"=X c #D9DAD7",
"-X c #D2D6D9",
";X c #D3D7DA",
":X c #D8DDDF",
">X c #DEDEDC",
",X c #DCE0D2",
"<X c #DDE0D2",
"1X c #DDE0D3",
"2X c #DEE1D3",
"3X c #E0E2D4",
"4X c #E1E5D7",
"5X c #EAEED4",
"6X c #E6E9DC",
"7X c #EBEFD9",
"8X c #E8EADD",
"9X c #EAECDE",
"0X c #EAEDDF",
"qX c #EDF0DA",
"wX c #E5E9E3",
"eX c #EEEFE2",
"rX c #EFF1E0",
"tX c #EFF2E0",
"yX c #EFF0E2",
"uX c #F0F2E5",
"iX c #F1F3E6",
"pX c #F2F3E6",
"aX c #F2F3E7",
"sX c #F3F4E7",
/* pixels */
"a a a a a a a a a a a a a a a a a a a a a a a a a a a a a a a a a a a a a a a a a a a a a a a a a a a a a a a a a a a a a a a a a a a a ",
"a a a a a a a a a a a a a a a a a a a a a a a a a a a a a a a a a a a a a a a a a a a a a a a a a a a a a a a a a a a a a a a a a a a a ",
"a a a a a a a a a a a a a a a a a a a a a a a a a a a a a a a a a a a a a a a a a a a a a a a a a a a a a a a a a a a a a a a a a a a a ",
"a a a a a a a a a a a a a a a a a a a a a a a a a a a a a a a a a a a a a a a a a a a a a a a a a a a a a a a a a a a a a a a a a a a a ",
"a a a a a a a a a a a a a a a a a a a a a a a a g g a a a a a a a a a a a a a a a a a a a a a a a a g g a a g g a a a a a a a a a a a a ",
"a a a a a a a a a a a a a a a a a a a a a a s u 5 4 r a a a a a a a a a a a a a a a a a a a a a a r 4 5 i i 5 4 r a a a a a a a a a a a ",
"a a a a a a a a a a a a a a a a a a a a a s z 0 O o 4 g a a a a a a a a a a a a a a a a a a a a g 4 o O e e O o 4 g a a a a a a a a a a ",
"a a a a a a a a a a a a a a a a a a a a a u q % X O 5 g a a a a a a a a a a a a a a a a a a a a g 5 O X & & X O 5 g a a a a a a a a a a ",
"a a a a a a a a a a a a a a a a a a a a g 5 @ O % 9 r a a a a a a a a a a a a a a a a a a a a a a u 0 $ X X $ 0 u a a a a a a a a a a a ",
"a a a a a a a a a a a a a a a a a a a a h 2   . 5 x s a a a a a a a a a a a a a a a a a a a a a a s z 0 O O 0 z s a a a a a a a a a a a ",
"a a a a a a a a g g a a a a a a a a a a h 2     3 j a a a a a a a a a a a a a a a a a a a a a a a a s u 5 5 u s a a a a a a a a a a a a ",
"a a a a a a a r 4 5 u s a a a a a a a a g 5 + + 5 g a a a a a a a a a a a a a a a a a a a a a a a a a a g g a a a a a a a a a a a a a a ",
"a a a a a a g 4 o O 0 z s a a a a a a a a r 5 5 r a a a a a a a a a a a a a a a a a a a a a a a a a a a a a a a a a a a a a a a a a a a ",
"a a a a a a g 5 O X % q u a a a a a a a a s g g a a a a a a a a a a a a a a a a a a a a a a a a a a a a a a a a a a a a a a a a a a a a ",
"a a a a a a a r 9 % O @ 5 g a a a a a a g g s a a a a a a a a a a a a a a a a a a a a a a a a a a a a a a a a a a a a a a a a a a a a a ",
"a a a a a a a s x 5 .   2 h a a a a s u 5 4 r a a a a a a a a a a a a a a a a a a a a a a a a a a a a a a a a a a a a a a a a a a a a a ",
"a a a a a a a a j 3     2 h a a a s z 0 O o 4 g a a a a a a a a a a a a a a a a a a a a a a a a a a a a a a a a a a a a a a a a a a a a ",
"a a a a a a a a g 5 + + 5 g a a a u q % X O 5 g a a a a 3.t.t.t.t.t.t.t.t.t.t.3.a a a a a a a a a a a a a a a a a a a a a a a a a a a a ",
"a a a a a a a a a r 5 5 r a a a g 5 @ O % 9 r a a a a a B.rXrXrXrXrXrXrXrXrXtXC.a a g g a a a a a a a a a a a a a a a a a a a a a a a a ",
"a a a a a a a a a a g g a a a a h 2   . 5 x s a a a A t.c.#X#X#X#X#X#X#X#X@X+Xx.r.Z 5 4 r a a a a a a a a a a a a a a a a a a a a a a a ",
"a a a a a a a a a a a a a a a a h 2     3 j a a a a A.sX:.P P P P P P P P K J %.sXZ.O o 4 g a a a a a a a a a a a a a a a a a a a a a a ",
"a a a a a a a a a a a a a a a a g 5 + + 5 g a a 2.V.1.:.@._ _ _ _ _ _ ) ^ ~ Q { %.<.z.y 5 g a a a a a a a a a a a a a a a a a a a a a a ",
"a a a a a a a a a a a a a a a a a r 5 5 r a a a w.qX>.W ] U.U.U.U.U.U.X.[ ` ` ! L =.7X0.u a a a a a a a a a a a a a a a a a a a a a a a ",
"a a a a a a a a a a a a a a a a a a g g a a a a m e.v.#X$.T T T T T T Y I I I #.+Xk.q.S s a a a a a a a a a a a a a a a a a a a a a a a ",
"a a a a a a a a a a a a a a a a a a a a a a a a c A S.wX;.E E E E E E E E R U -.wXm.N v a a a a a a a a a a a a a a a a a a a a a a a a ",
"a a a a a a a a a a a a a a a a a a a a a a a a 9.5XOXE.{.>X>X>X>X>X>X>X>X=XoX(.E.OX5X9.a a a a a a a a a a a a a a a a a a a a a a a a ",
"a a a a a a a a a a a a a a a a a a a a a a a a t.rX|.Y.|.sXsXsXsXsXsXsXsXeX2X'.Y.|.rXt.a a a a a a a a a a a a a a a a a a a a a a a a ",
"a a a a a a a a a a a a a a a a a a a a a a a a t.rX|.Y.|.sXsXsXsXsXsXsXsXeX2X'.Y.|.rXt.a a a a a a a a a a a a a a a a a a a a a a a a ",
"a a a a a a a a a a a a a a a a a a a a a a a a t.rX|.Y.|.sXsXsXsXsXsXsXsXeX2X'.Y.|.rXt.a a a a a a a a a a a a a a a a a a a a a a a a ",
"a a a a a a a a a a a a a a a a a a a a a a a a t.rX|.Y.|.sXsXsXsXsXsXsXsXeX2X'.Y.|.rXt.a a a a a a a a a a a a a a a a a a a a a a a a ",
"a a a a a a a a a a a a a a a a a a a a a a m N.M..X|. X:XsXsXsXsXsXsXsXsXeX2XXX]._.).n.N.m a a a a a a a a a a a a a a a a a a a a a a ",
"a a a a a a a a a a a a a a a a a a a a a a A rX:XR. XsXsXsXsXsXsXsXsXsXsXeX2X,X,X~. .;XrXA a a a a a a a a a a a a a a a a a a a a a a ",
"a a a a a a a a a a a a a a a a a a a a a a A rX:XR. XsXsXsXsXsXsXsXsXsXsXeX2X,X,X~. .;XrXA a a a a a a a a a a a a a a a a a a a a a a ",
"a a a a a a a a a a a a a a a a a a a a a a A rX:XT.}.sXsXsXsXsXsXsXsXsXsXeX2X,X,XW.| -XrXA a a a a a a a a a a a a a a a a a a a a a a ",
"a a a a a a a a a a a a a a a a a a a a a a A rX;X..[.sXsXsXsXsXsXsXsXsXsXeX2X,X,X*.( &XrXA a a a a a a a a a a a a a a a a a a a a a a ",
"a a a a a a a a a a a a a a a a a a a a a a A rX;X .`.sXsXsXsXsXsXsXsXsXsXeX2X,X,X&./ %XrXA a a a a a a a a t t a a t t a a a a a a a a ",
"a a a a a a a a a a a a a a a a a a a a a a A rX;X .`.sXsXsXsXsXsXsXsXsXsXeX2X,X,X&./ %XrXA a a a a a a d w < < t t < < w d a a a a a a ",
"a a a a a a a a a a a a a a a a a a a a a a A rX;X .`.sXsXsXsXsXsXsXsXaXyX9X1X,X,X&./ %XrXA a a a a a a w c H G f f G H c w a a a a a a ",
"a a a a a a a a a a a a a a a a a a a a a a A rX;X .`.sXsXsXsXsXsXsXsXuX3X2X,X,X,X&./ %XrXA a a a a a t < H j.f.v v f.j.H < r a a a a a ",
"a a a a a a a a a a a a a a t t a a a a a a A rX*X' /.sXsXpX0X8X8X8X8X6X<X,X,X,X,X&./ %XrXA a a a a a t < G g.D.8.8.D.g.G < r a a a a a ",
"a a a a a a a a a a a a d w < < w d a a a a A rX%X/ Q.sXsXiX4X,X,X,X,X,X,X,X,X,X,X&./ %XrXA a a a a a a w l V i.D.D.i.B l w a a a a a a ",
"a a a a a a a a a a a p 8 l G H c w a a a a c e.l.$X!.+.+.O.o.} } } } } } } } } } ,.$Xl.e.c a a a a a a d 8 * V h.h.V * 8 d a a a a a a ",
"a a a a a a a a a a d 8 * V g.j.H < r a a a a a w.qX^./ / / / / / / / / / / / / / ^.qXw.a a a a a a a a a p 8 l G G l 8 p a a a a a a a ",
"a a a a a a t t a a r l M u.F.g.G < r a a a a a m e.b.%X%X%X%X%X%X%X%X%X%X%X%X%X%Xb.e.m a a a a a a a a a a d w < < w d a a a a a a a a ",
"a a a a d w < < w p 1 D a.g.y.V l w a a a a a a a a A.sXsXsXsXsXsXsXsXsXsXsXsXsXsXA.a a a a a a a a a a a a a a t t a a a a a a a a a a ",
"a a a a w c H G l 6 ; 7.I.J.D # 8 d a a a a a a a a a a a a a a a a a a a a a a a a a a a a a a a a a a a a a a a a a a a a a a a a a a ",
"a a a t < H j.g.V # = 6.H.G.4.; w a a a a a a a a a a a a a a a a a a a a a a a a a a a a a a a a a a a a a a a a a a a a a a a a a a a ",
"a a a t < G g.F.u.n 7 4.G.H.5., r a a a t t a a a a a a a a a a a a a a a a a a a a a a a a a a a a a a a a a a a a a a a a a a a a a a ",
"a a a a w l V y.g.p.b D K.P.7.> w a d w < < w d a a a a a a a a a a a a a a a a a a a a a a a a a a a a a a a a a a a a a a a a a a a a ",
"a a a a d 8 # D J.L.F n s.d.D 1 t a w c H G l 8 p a a a a a a a a a a a a a a a t t a a t t a a a a a a a a a a a a a a a a a a a a a a ",
"a a a a a w ; 4.G.G.4.8 C D c r a t < H j.g.V * 8 d a a a a a a a a a a a a d w < < t t < < w d a a a a a a a a a a a a a a a a a a a a ",
"a a a a a r , 5.H.H.6.- > < w d a t < G g.F.u.M k r a a a a a a a a a a a a w c H G f f G H c w a a a a a a a a a a a a a a a a a a a a ",
"a a a a a r > 7.P.P.7.: 8 t a a a a w l V y.g.a.D 1 t a a a a a a a a a a t < H j.f.v v f.j.H < r a a a a a a a a a a a a a a a a a a a ",
"a a a a a t 1 D d.d.D 1 t a a a a a d 8 # D J.I.7.> w a a a a a a a a a a t < G g.D.8.8.D.g.G < r a a a a a a a a a a a a a a a a a a a ",
"a a a a a a r c D D c r a a a a a a a w ; 4.G.H.5., r a a a a a a a a a a a w l V i.D.D.i.B l w a a a a a a a a a a a a a a a a a a a a ",
"a a a a a a d w < < w d a a a a a a a r , 5.H.H.5., r a a a a a a a a a a a d 8 * V h.h.V * 8 d a a a a a a a a a a a a a a a a a a a a ",
"a a a a a a a a t t a a a a a a a a a r > 7.P.P.7.> w a a a a a a a a a a a a p 8 l G G l 8 p a a a a a a a a a a a a a a a a a a a a a ",
"a a a a a a a a a a a a a a a a a a a t 1 D d.d.D 1 t a a a a a a a a a a a a a d w < < w d a a a a a a a a a a a a a a a a a a a a a a ",
"a a a a a a a a a a a a a a a a a a a a r c D D c r a a a a a a a a a a a a a a a a t t a a a a a a a a a a a a a a a a a a a a a a a a ",
"a a a a a a a a a a a a a a a a a a a a d w < < w d a a a a a a a a a a a a a a a a a a a a a a a a a a a a a a a a a a a a a a a a a a ",
"a a a a a a a a a a a a a a a a a a a a a a t t a a a a a a a a a a a a a a a a a a a a a a a a a a a a a a a a a a a a a a a a a a a a ",
"a a a a a a a a a a a a a a a a a a a a a a a a a a a a a a a a a a a a a a a a a a a a a a a a a a a a a a a a a a a a a a a a a a a a ",
"a a a a a a a a a a a a a a a a a a a a a a a a a a a a a a a a a a a a a a a a a a a a a a a a a a a a a a a a a a a a a a a a a a a a ",
"a a a a a a a a a a a a a a a a a a a a a a a a a a a a a a a a a a a a a a a a a a a a a a a a a a a a a a a a a a a a a a a a a a a a "
};
