/* XPM */
static char *result[] = {
/* columns rows colors chars-per-pixel */
"68 64 238 2 ",
"   c #92987F",
".  c #959C7F",
"X  c #969D7F",
"o  c #9BA47D",
"O  c #9CA57D",
"+  c #A4AE7A",
"@  c #A5AF7B",
"#  c #AFBD76",
"$  c #A8B478",
"%  c #A9B578",
"&  c #B0BE76",
"*  c #A5C364",
"=  c #A6C364",
"-  c #AAC666",
";  c #ABC666",
":  c #ACC767",
">  c #AEC867",
",  c #AEC868",
"<  c #B8CF62",
"1  c #B5CD6B",
"2  c #B6CD6B",
"3  c #B7CE6C",
"4  c #B9D064",
"5  c #BAD166",
"6  c #BBD167",
"7  c #BBD168",
"8  c #BCD168",
"9  c #BCD169",
"0  c #BCD269",
"q  c #BDD26A",
"w  c #BDD26B",
"e  c #B9D06D",
"r  c #BAD06D",
"t  c #BBD06D",
"y  c #BBD16E",
"u  c #BDD26C",
"i  c #BED36C",
"p  c #BED36D",
"a  c #BCD26E",
"s  c #BDD26E",
"d  c #BDD26F",
"f  c #BFD36E",
"g  c #BED36F",
"h  c #BFD36F",
"j  c #BFD46F",
"k  c #B4C474",
"l  c #B7C874",
"z  c #B9CB72",
"x  c #BBCE71",
"c  c #BACC72",
"v  c #BBCD72",
"b  c #BDD071",
"n  c #BFD370",
"m  c #BFD470",
"M  c #C0D46F",
"N  c #C0D470",
"B  c #C1D570",
"V  c #C0D471",
"C  c #C1D571",
"Z  c #C2D571",
"A  c #C2D671",
"S  c #C3D671",
"D  c #C1D573",
"F  c #C2D573",
"G  c #C4D672",
"H  c #C4D772",
"J  c #C2D574",
"K  c #C3D674",
"L  c #C4D677",
"P  c #C4D777",
"I  c #C5D778",
"U  c #C6D879",
"Y  c #C6D87A",
"T  c #C7D97C",
"R  c #C8D97D",
"E  c #C8D97E",
"W  c #C9D97E",
"Q  c #C9DA7F",
"!  c #EAE17A",
"~  c #5C4E92",
"^  c #5D5090",
"/  c #5C5091",
"(  c #5E5291",
")  c #62578F",
"_  c #685F8E",
"`  c #625690",
"'  c #635790",
"]  c #655593",
"[  c #655694",
"{  c #665795",
"}  c #645796",
"|  c #665894",
" . c #665895",
".. c #665995",
"X. c #625698",
"o. c #6C5F9B",
"O. c #69608E",
"+. c #6F698C",
"@. c #726E8B",
"#. c #706A8C",
"$. c #716A8C",
"%. c #736E8C",
"&. c #74708A",
"*. c #76728A",
"=. c #6F6792",
"-. c #6F6298",
";. c #6C609B",
":. c #766D96",
">. c #786C9B",
",. c #766DAA",
"<. c #7C70A5",
"1. c #7A71A9",
"2. c #7A71AB",
"3. c #7E76AC",
"4. c #807F86",
"5. c #807F87",
"6. c #80759F",
"7. c #8478A7",
"8. c #887FA1",
"9. c #857DA9",
"0. c #867EAD",
"q. c #8F9381",
"w. c #909481",
"e. c #939780",
"r. c #919582",
"t. c #919583",
"y. c #919485",
"u. c #929484",
"i. c #929584",
"p. c #939881",
"a. c #939390",
"s. c #9A9995",
"d. c #9B9A95",
"f. c #A19997",
"g. c #B0A895",
"h. c #9087A2",
"j. c #9D96A7",
"k. c #9B93A9",
"l. c #9A91B1",
"z. c #9B91B4",
"x. c #9F94B6",
"c. c #9D92B8",
"v. c #A392A7",
"b. c #A39CA4",
"n. c #A39DA4",
"m. c #A893AC",
"M. c #A79FAA",
"N. c #AB9AAE",
"B. c #A59FB2",
"V. c #A7A0A9",
"C. c #A8A0A9",
"Z. c #AFA9AE",
"A. c #B5AEB1",
"S. c #B5AFB5",
"D. c #D6A8A9",
"F. c #D8B5AD",
"G. c #E8B5AC",
"H. c #CFC685",
"J. c #CADA80",
"K. c #CADA81",
"L. c #CBDB81",
"P. c #CBDB82",
"I. c #CEDD87",
"U. c #D1DE8A",
"Y. c #D1DF8A",
"T. c #D1DF8B",
"R. c #E5DD88",
"E. c #DBE598",
"W. c #DBE699",
"Q. c #DBE69A",
"!. c #DCE69A",
"~. c #DEE79C",
"^. c #DEE79D",
"/. c #DEE89E",
"(. c #DFE89F",
"). c #EBE380",
"_. c #EBE381",
"`. c #ECE588",
"'. c #E6E096",
"]. c #EDE791",
"[. c #CEC9B4",
"{. c #D5D2B6",
"}. c #D5D2B7",
"|. c #D6D1B8",
" X c #D5D2B8",
".X c #D4D1BA",
"XX c #D6D3BB",
"oX c #DFDAB9",
"OX c #DEDCBC",
"+X c #EAC4B1",
"@X c #ECCFB5",
"#X c #E0C8BF",
"$X c #E0D8BB",
"%X c #E0DDBA",
"&X c #E1DFBB",
"*X c #E0E9A0",
"=X c #E1E9A1",
"-X c #E4EBA4",
";X c #E4EBA5",
":X c #E5ECA6",
">X c #E5ECA7",
",X c #E6ECA7",
"<X c #E6EDA7",
"1X c #E6EDA8",
"2X c #E2E0BB",
"3X c #E5E2BB",
"4X c #E4E2BC",
"5X c #EAE8BE",
"6X c #EBEABE",
"7X c #ECEABE",
"8X c #F1EFB3",
"9X c #F1EFBF",
"0X c #F2EEBE",
"qX c #F2EFBF",
"wX c #F2F0B7",
"eX c #F2F0BA",
"rX c #F2F1BC",
"tX c #F2F0BF",
"yX c #F3F2BF",
"uX c #C0B6CC",
"iX c #CDC4D5",
"pX c #D0C7D2",
"aX c #D8CFD9",
"sX c #DFD7DD",
"dX c #DDD5DE",
"fX c #E0DBCB",
"gX c #F3DAC5",
"hX c #E0D9DB",
"jX c #ECE9C6",
"kX c #EEEBC7",
"lX c #E8E3CF",
"zX c #E8E4CF",
"xX c #EDEBC8",
"cX c #F3E0C4",
"vX c #F3ECC1",
"bX c #F3EDC1",
"nX c #F1F0C1",
"mX c #F3F2C0",
/* pixels */
"N N N N N N N N N N N N N N N N N N N N N N N N N N N N N N N N N N N N N N N N N N N N N N N N N N N N N N N N N N N N N N N N N N N N ",
"N N N N N N N N N N N N N N N N N N N N N N N N N N N N N N N N N N N N N N N N N N N N N N N N N N N N N N N N N N N N N N N N N N N N ",
"N N N N N N N N N N N N N N N N N N N N N N N N N N N N N N N N N N N N N N N N N N N N N N N N N N N N N N N N N N N N N N N N N N N N ",
"N N N N N N N N N N N N N N N N N N N N N N N N N N N N N N N N N N N N N N N N N N N N N N N N N N N N N N N N N N N N N N N N N N N N ",
"N N N N N N N N N N N N N N N N N N N N N N N N Z Z N N N N N N N N N N N N N N N N N N N N N N N N Z Z N N Z Z N N N N N N N N N N N N ",
"N N N N N N N N N N N N N N N N N N N N N N B n y t h N N N N N N N N N N N N N N N N N N N N N N h t y m m y t h N N N N N N N N N N N ",
"N N N N N N N N N N N N N N N N N N N N N B G s : ; t Z N N N N N N N N N N N N N N N N N N N N Z t ; : g g : ; t Z N N N N N N N N N N ",
"N N N N N N N N N N N N N N N N N N N N N n d 2 - : y Z N N N N N N N N N N N N N N N N N N N N Z y : - 3 3 - : y Z N N N N N N N N N N ",
"N N N N N N N N N N N N N N N N N N N N Z y , : 2 a h N N N N N N N N N N N N N N N N N N N N N N n s 1 - - 1 s n N N N N N N N N N N N ",
"N N N N N N N N N N N N N N N N N N N N A e * = y H B N N N N N N N N N N N N N N N N N N N N N N B G s : : s G B N N N N N N N N N N N ",
"N N N N N N N N Z Z N N N N N N N N N N A e * * r S N N N N N N N N N N N N N N N N N N N N N N N N B n y y n B N N N N N N N N N N N N ",
"N N N N N N N h t y n B N N N N N N N N Z y > > y Z N N N N N N N N N N N N N N N N N N N N N N N N N N Z Z N N N N N N N N N N N N N N ",
"N N N N N N Z t ; : s G B N N N N N N N N h y y h N N N N N N N N N N N N N N N N N N N N N N N N N N N N N N N N N N N N N N N N N N N ",
"N N N N N N Z y : - 2 d n N N N N N N N N B Z Z N N N N N N N N N N N N N N N N N N N N N N N N N N N N N N N N N N N N N N N N N N N N ",
"N N N N N N N h a 2 : , y Z N N N N N N Z Z B N N N N N N N N N N N N N N N N N N N N N N N N N N N N N N N N N N N N N N N N N N N N N ",
"N N N N N N N B H y = * e A N N N N B n y t h N N N N N N N N N N N N N N N N N N N N N N N N N N N N N N N N N N N N N N N N N N N N N ",
"N N N N N N N N S r * * e A N N N B G s : ; t Z N N N N N N N N N N N N N N N N N N N N N N N N N N N N N N N N N N N N N N N N N N N N ",
"N N N N N N N N Z y > > y Z N N N n d 2 - : y Z N b X w.w.w.w.% N N N N N N % w.w.w.w.X b N N N N N N N N N N N N N N N N N N N N N N N ",
"N N N N N N N N N h y y h N N N Z y , : 2 a h N N c O.~ ~ ~ ~ w.N N N N N N r.~ ~ ~ ~ O.c N N N N N N N N N N N N N N N N N N N N N N N ",
"N N N N N N N N N N Z Z N N N N A e * = y H B N O i.n.C.C.C.C.d.p.k N N k e.s.C.C.C.C.b.t.O N N N N N N N N N N N N N N N N N N N N N N ",
"N N N N N N N N N N N N N N N N A e * * r S N N *.| oX0X0XqXmXV.' + c c @ ) V.mXqX0X0XoX| *.N N N N N N N N N N N N N N N N N N N N N N ",
"N N N N N N N N N N N N N N N N Z y > > y Z N N *.[ F.+X+X@XmXV.^ #.*.*.$.^ V.mX@X+X+XF.[ *.N N N N N N N N N N N N N N N N N N N N N N ",
"N N N N N N N N N N N N N N N N N h y y h N N N *.] D.G.G.+XmXZ.o.o.o.o.o.o.Z.mX+XG.G.D.] *.N N N N N N N N N N N N N N N N N N N N N N ",
"N N N N N N N N N N N N N N N N N N Z Z N N N N *.] D.G.G.+XmXfXiXiXiXiXiXiXfXmX+XG.G.D.] *.N N N N N N N N N N N N N N N N N N N N N N ",
"N N N N N N N N N N N N N N N N N N N N N N N N *.[ F.+X+X@XmXzXdXdXdXdXdXdXzXmX@X+X+XF.[ *.N N N N N N N N N N N N N N N N N N N N N N ",
"N N N N N N N N N N N N N N N N N N N N N N N N *.| oX0X0XqXmXzXdXdXdXdXdXdXzXmXqX0X0XoX| *.N N N N N N N N N N N N N N N N N N N N N N ",
"N N N N N N N N N N N N N N N N N N N N N N N N *...%XmXmXmXmXzXdXdXdXdXdXdXzXmXmXmXmX%X..*.N N N N N N N N N N N N N N N N N N N N N N ",
"N N N N N N N N N N N N N N N N N N N N N N N N *...%XmXmXmXmXzXdXdXdXdXdXdXzXmXmXmXmX%X..*.N N N N N N N N N N N N N N N N N N N N N N ",
"N N N N N N N N N N N N N N N N N N N N N N $ q._ ..%XmXmXmXmXxXlXlXlXlXlXlXxXmXmXmXmX%X.._ q.$ N N N N N N N N N N N N N N N N N N N N ",
"N N N N N N N N N N N N N N N N N N N N N N   ' / ..%XtX5X6XmXmXmXmXmXmXmXmXmXmX6X5XtX%X../ '   N N N N N N N N N N N N N N N N N N N N ",
"N N N N N N N N N N N N N N N N N N N N N N k % +...%X3X8.j.mXmXmXmXmXmXmXmXmXmXj.8.3X%X..+.% k N N N N N N N N N N N N N N N N N N N N ",
"N N N N N N N N N N N N N N N N N N N N N N c k @...%X2X>.h.mXmXmXmXmXmXmXmXmXmXh.>.2X%X..@.k c N N N N N N N N N N N N N N N N N N N N ",
"N N N N N N N N N N N N N N N N N N N N N N . O.( ..%X9X&X4XmXmXmXmXmXmXmXmXmXmX4X&X9X%X..( O.. N N N N N N N N N N N N N N N N N N N N ",
"N N N N N N N N N N N N N N N N N N N N N N o *.`  .$XvXvXbXmXmXmXmXmXmXmXmXmXmXbXvXvX$X .` *.o N N N N N N N N N N N N N N N N N N N N ",
"N N N N N N N N N N N N N N N N N N N N N N b c &.{ #XgXgXcXmXmXmXmXmXmXmXmXmXmXcXgXgX#X{ &.c b N N N N N N N N N N N N N N N N N N N N ",
"N N N N N N N N N N N N N N N N N N N N N N N N O u.v.m.m.N.S.S.S.S.S.S.S.S.S.S.N.m.m.v.u.O N N N N N N N N j j N N j j N N N N N N N N ",
"N N N N N N N N N N N N N N N N N N N N N N N N N c O.~ ~ X.,.,.,.,.,.,.,.,.,.,.X.~ ~ O.c N N N N N N N V f q q j j q q f V N N N N N N ",
"N N N N N N N N N N N N N N N N N N N N N N N N O y.l.x.M.k.,.,.1.f.g.A.B.2.,.,.k.M.x.l.y.O N N N N N N f J Q W C C W Q J f N N N N N N ",
"N N N N N N N N N N N N N N N N N N N N N N N N *.} iXhXnXXX3.3.9.H.).8X X0.3.3.XXnXhXiX} *.N N N N N j q Q (.~.K K ~.(.Q q h N N N N N ",
"N N N N N N N N N N N N N N j j N N N N N N N N *.} iXhXnX7X.X.X{.R.! `.'.}..X.X7XnXhXiX} *.N N N N N j q W ^.*XI.I.*X^.W q h N N N N N ",
"N N N N N N N N N N N N V f q q f V N N N N N N 4.=.uXpXOX4XmXmXrX]._._.].rXmXmX4XOXpXuX=.4.N N N N N N f F Y T.*X*XT.U F f N N N N N N ",
"N N N N N N N N N N N M p F W Q J f N N N N N N l & :.;.-.h.mXmXyXeXwXwXeXyXmXmXh.-.;.:.& l N N N N N N V p 4 Y /./.Y 4 p V N N N N N N ",
"N N N N N N N N N N V p 4 Y ^.(.Q q h N N N N N N x 5.%.^ 6.kXkXjX|.[.[.|.jXkXkX6.^ %.5.x N N N N N N N N M p F W W F p M N N N N N N N ",
"N N N N N N j j N N h F I Y.=X^.W q h N N N N N N N v # ' <.sXsXaX7.....7.aXsXsX<.' # v N N N N N N N N N N V f q q f V N N N N N N N N ",
"N N N N V f q q f M w R W.^.U.Y F f N N N N N N N N N z p.a.c.c.z.a.q.q.a.z.c.c.a.p.z N N N N N N N N N N N N N j j N N N N N N N N N N ",
"N N N N f J Q W F u 7 P.1X:XR < p V N N N N N N N N N N N % ~ ~ ' % N N % ' ~ ~ % N N N N N N N N N N N N N N N N N N N N N N N N N N N ",
"N N N j q Q (.^.Y < 5 L.;X-XJ.7 f N N N N N N N N N N N N k w.w.p.k N N k p.w.w.k N N N N N N N N N N N N N N N N N N N N N N N N N N N ",
"N N N j q W ^.=XY.P i J.-X;XK.0 h N N N j j N N N N N N N N N N N N N N N N N N N N N N N N N N N N N N N N N N N N N N N N N N N N N N ",
"N N N N f F Y U.^.E.L R >X<XP.9 f N V f q q f V N N N N N N N N N N N N N N N N N N N N N N N N N N N N N N N N N N N N N N N N N N N N ",
"N N N N V p < R :X,XE P Q.!.R w j N f J Q W F p M N N N N N N N N N N N N N N N j j N N j j N N N N N N N N N N N N N N N N N N N N N N ",
"N N N N N f 7 J.-X-XJ.p T R J h N j q Q (.^.Y 4 p V N N N N N N N N N N N N V f q q j j q q f V N N N N N N N N N N N N N N N N N N N N ",
"N N N N N h 0 K.;X;XL.6 9 q f V N j q W ^.=XY.I D h N N N N N N N N N N N N f J Q W C C W Q J f N N N N N N N N N N N N N N N N N N N N ",
"N N N N N h 9 P.<X<XP.8 p j N N N N f F Y U.^.W.R w j N N N N N N N N N N j q Q (.~.K K ~.(.Q q h N N N N N N N N N N N N N N N N N N N ",
"N N N N N j w R !.!.R w j N N N N N V p < R :X1XP.9 f N N N N N N N N N N j q W ^.*XI.I.*X^.W q h N N N N N N N N N N N N N N N N N N N ",
"N N N N N N h J R R J h N N N N N N N f 7 J.-X;XK.0 h N N N N N N N N N N N f F Y T.*X*XT.U F f N N N N N N N N N N N N N N N N N N N N ",
"N N N N N N V f q q f V N N N N N N N h 0 K.;X;XK.0 h N N N N N N N N N N N V p 4 Y /./.Y 4 p V N N N N N N N N N N N N N N N N N N N N ",
"N N N N N N N N j j N N N N N N N N N h 9 P.<X<XP.9 f N N N N N N N N N N N N M p F W W F p M N N N N N N N N N N N N N N N N N N N N N ",
"N N N N N N N N N N N N N N N N N N N j w R !.!.R w j N N N N N N N N N N N N N V f q q f V N N N N N N N N N N N N N N N N N N N N N N ",
"N N N N N N N N N N N N N N N N N N N N h J R R J h N N N N N N N N N N N N N N N N j j N N N N N N N N N N N N N N N N N N N N N N N N ",
"N N N N N N N N N N N N N N N N N N N N V f q q f V N N N N N N N N N N N N N N N N N N N N N N N N N N N N N N N N N N N N N N N N N N ",
"N N N N N N N N N N N N N N N N N N N N N N j j N N N N N N N N N N N N N N N N N N N N N N N N N N N N N N N N N N N N N N N N N N N N ",
"N N N N N N N N N N N N N N N N N N N N N N N N N N N N N N N N N N N N N N N N N N N N N N N N N N N N N N N N N N N N N N N N N N N N ",
"N N N N N N N N N N N N N N N N N N N N N N N N N N N N N N N N N N N N N N N N N N N N N N N N N N N N N N N N N N N N N N N N N N N N ",
"N N N N N N N N N N N N N N N N N N N N N N N N N N N N N N N N N N N N N N N N N N N N N N N N N N N N N N N N N N N N N N N N N N N N "
};
