/* XPM */
static char *result[] = {
/* columns rows colors chars-per-pixel */
"68 64 115 2 ",
"   c #6B4B5B",
".  c #754C60",
"X  c #90625D",
"o  c #AA7959",
"O  c #67835C",
"+  c #78A158",
"@  c #8DB15D",
"#  c #B68962",
"$  c #C49A6C",
"%  c #A4C263",
"&  c #A5C364",
"*  c #A6C364",
"=  c #AAC666",
"-  c #ABC666",
";  c #ACC767",
":  c #AEC867",
">  c #AEC868",
",  c #B8CF62",
"<  c #B1C36E",
"1  c #B5CD6B",
"2  c #B6CD6B",
"3  c #B7CE6C",
"4  c #B9D064",
"5  c #BAD166",
"6  c #BBD167",
"7  c #BBD168",
"8  c #BCD168",
"9  c #BCD169",
"0  c #BCD269",
"q  c #BDD26A",
"w  c #BDD26B",
"e  c #B9D06D",
"r  c #BAD06D",
"t  c #BBD06D",
"y  c #BBD16E",
"u  c #BDD26C",
"i  c #BED36C",
"p  c #BED36D",
"a  c #BCD26E",
"s  c #BDD26E",
"d  c #BDD26F",
"f  c #BFD36E",
"g  c #BED36F",
"h  c #BFD36F",
"j  c #BFD46F",
"k  c #B1C370",
"l  c #B2C371",
"z  c #B2C372",
"x  c #B2C472",
"c  c #B3C472",
"v  c #B3C473",
"b  c #B3C474",
"n  c #B4C576",
"m  c #B5C576",
"M  c #B6C676",
"N  c #B9C87C",
"B  c #BAC97E",
"V  c #BBC97F",
"C  c #BFD370",
"Z  c #BFD470",
"A  c #C0D46F",
"S  c #C0D470",
"D  c #C1D570",
"F  c #C0D471",
"G  c #C1D571",
"H  c #C2D571",
"J  c #C2D671",
"K  c #C3D671",
"L  c #C2D573",
"P  c #C4D672",
"I  c #C4D772",
"U  c #C2D574",
"Y  c #C3D674",
"T  c #C4D677",
"R  c #C4D777",
"E  c #C5D778",
"W  c #C6D879",
"Q  c #C6D87A",
"!  c #C7D97C",
"~  c #C8D97D",
"^  c #C8D97E",
"/  c #C9D97E",
"(  c #C9DA7F",
")  c #DCB98A",
"_  c #BBCA80",
"`  c #CADA80",
"'  c #CADA81",
"]  c #CBDB81",
"[  c #CBDB82",
"{  c #CEDD87",
"}  c #D1DE8A",
"|  c #D1DF8A",
" . c #D1DF8B",
".. c #CBD497",
"X. c #CED59A",
"o. c #CFD69C",
"O. c #DBE598",
"+. c #DBE699",
"@. c #DBE69A",
"#. c #DCE69A",
"$. c #DEE79C",
"%. c #DEE79D",
"&. c #DEE89E",
"*. c #DFE89F",
"=. c #E8CFA6",
"-. c #E0E9A0",
";. c #E1E9A1",
":. c #E4EBA4",
">. c #E4EBA5",
",. c #E5ECA6",
"<. c #E5ECA7",
"1. c #E6ECA7",
"2. c #E6EDA7",
"3. c #E6EDA8",
"4. c #F3E5C2",
/* pixels */
"S S S S S S S S S S S S S S S S S S S S S S S S S S S S S S S S S S S S S S S S S S S S S S S S S S S S S S S S S S S S S S S S S S S S ",
"S S S S S S S S S S S S S S S S S S S S S S S S S S S S S S S S S S S S S S S S S S S S S S S S S S S S S S S S S S S S S S S S S S S S ",
"S S S S S S S S S S S S S S S S S S S S S S S S S S S S S S S S S S S S S S S S S S S S S S S S S S S S S S S S S S S S S S S S S S S S ",
"S S S S S S S S S S S S S S S S S S S S S S S S S S S S S S S S S S S S S S S S S S S S S S S S S S S S S S S S S S S S S S S S S S S S ",
"S S S S S S S S S S S S S S S S S S S S S S S S H H S S S S S S S S S S S S S S S S S S S S S S S S H H S S H H S S S S S S S S S S S S ",
"S S S S S S S S S S S S S S S S S S S S S S D C y t h S S S S S S S S S S S S S S S S S S S S S S h t y Z Z y t h S S S S S S S S S S S ",
"S S S S S S S S S S S S S S S S S S S S S D P s ; - t H S S S S S S S S S S S S S S S S S S S S H t - ; g g ; - t H S S S S S S S S S S ",
"S S S S S S S S S S S S S S S S S S S S S C d 2 = ; y H S S S S S S S S S S S S S S S S S S S S H y ; = 3 3 = ; y H S S S S S S S S S S ",
"S S S S S S S S S S S S S S S S S S S S H y > ; 2 a h S S S S S S S S S S S S S S S S S S S S S S C s 1 = = 1 s C S S S S S S S S S S S ",
"S S S S S S S S S S S S S S S S S S S S J e & * y I D S S S X X X X X X S S S S S S S S S S S S S D P s ; ; s P D S S S S S S S S S S S ",
"S S S S S S S S H H S S S S S S S S S S J e & & r K S X X X ) ) ) ) ) ) X X X S S S S S S S S S S S D C y y C D S S S S S S S S S S S S ",
"S S S S S S S h t y C D S S S S S S S S H y : : X X X ) ) ) ) ) ) ) ) ) ) ) ) X X X S S S S S S S S S S H H S S S S S S S S S S S S S S ",
"S S S S S S H t - ; s P D S S S S S S S S X X X ) ) ) ) ) ) + + + + + + ) ) ) ) ) ) X X X S S S S S S S S S S S S S S S S S S S S S S S ",
"S S S S S S H y ; = 2 d C S S S S S X X X ) ) ) ) ) ) + + + S % % % % S + + + ) ) ) ) ) ) X X X S S S S S S S S S S S S S S S S S S S S ",
"S S S S S S S h a 2 ; > y H S X X X ) ) ) ) ) ) + + + % @ + S % % % % S + @ % + + + ) ) ) ) ) ) X X X S S S S S S S S S S S S S S S S S ",
"S S S S S S S D I y * & e J X ) ) ) ) ) ) + + + + S S % @ + % @ @ @ @ % + @ % S S + + + + ) ) ) ) ) ) X S S S S S S S S S S S S S S S S ",
"S S S S S S S S K r & & e J X ) ) ) + + + % % @ + S S % @ + S % % % % S + @ % S S + @ % % + + + ) ) ) X S S S S S S S S S S S S S S S S ",
"S S S S S S S S H y : : y H X $ + + @ + S S % @ + % % % @ + S % % % % S + @ % % % + @ % S S + @ + + $ X S S S S S S S S S S S S S S S S ",
"S S S S S S S S S h y y h S S X O % @ + S S % @ + S S % @ + % @ @ @ @ % + @ % S S + @ % S S + @ % O X S S S S S S S S S S S S S S S S S ",
"S S S S S S S S S S H H S S S S O % @ + % % % @ + S S % @ + S % % % % S + @ % S S + @ % % % + @ % O S S S S S S S S S S S S S S S S S S ",
"S S S S S S S S S S S S S S S S O % @ + S S % @ + % % % @ + S % % % % S + @ % % % + @ % S S + @ % O S S S S S S S S S S S S S S S S S S ",
"S S S S S S S S S S S S S S S S O % @ + S S % @ + S S % @ + o o o o o o + @ % S S + @ % S S + @ % O S S S S S S S S S S S S S S S S S S ",
"S S S S S S S S S S S S S S S S O % @ + % % % @ + S S o o o =.=.=.=.=.=.o o o S S + @ % % % + @ % O S S S S S S S S S S S S S S S S S S ",
"S S S S S S S S S S S S S S S S O % @ + S S % @ o o o =.=.=.4.4.4.4.4.4.=.=.=.o o o @ % S S + @ % O S S S S S S S S S S S S S S S S S S ",
"S S S S S S S S S S S S S S S S O % @ + S o o o =.=.=.4.4.4.) ) ) ) ) ) 4.4.4.=.=.=.o o o S + @ % O S S S S S S S S S S S S S S S S S S ",
"S S S S S S S S S S S S S S S S O % o o o =.=.=.4.4.4.) ) ) ) ) ) ) ) ) ) ) ) 4.4.4.=.=.=.o o o % O S S S S S S S S S S S S S S S S S S ",
"S S S S S S S S S S S S S S S o o o =.=.=.4.4.4.) ) ) ) ) ) X X X X X X ) ) ) ) ) ) 4.4.4.=.=.=.o o o S S S S S S S S S S S S S S S S S ",
"S S S S S S S S S S S S S S o =.=.=.4.4.4.) ) ) ) ) ) X X X X X X X X X X X X ) ) ) ) ) ) 4.4.4.=.=.=.o S S S S S S S S S S S S S S S S ",
"S S S S S S S S S S S S S S o 4.4.4.) ) ) ) ) ) X X X X X X X X X X X X X X X X X X ) ) ) ) ) ) 4.4.4.o S S S S S S S S S S S S S S S S ",
"S S S S S S S S S S S S S S X ) ) ) ) ) ) X X X X X X X X X X X X X X X X X X X X X X X X ) ) ) ) ) ) X S S S S S S S S S S S S S S S S ",
"S S S S S S S S S S S S S S X ) ) ) X X X o o o o o o o o o o o o o o o o o o o o o o o o X X X ) ) ) X S S S S S S S S S S S S S S S S ",
"S S S S S S S S S S S S S S S X X X # $ $ $ $ $ $ $ $ $ $ $ $ $ $ $ $ $ $ $ $ $ $ $ $ $ $ $ $ # X X X S S S S S S S S S S S S S S S S S ",
"S S S S S S S S S S S S S S S S S . $ $ $ $ $ $ $ $ $ $ $ $ $ $ $ $ $ $ $ $ $ $ $ $ $ $ $ $ $ $   S S S S S S S S S S S S S S S S S S S ",
"S S S S S S S S S S S S S S S S S . o o o o o o o o o o o o o o o o o o o o o o o o o o o o o o . S S S S S S S S S S S S S S S S S S S ",
"S S S S S S S S S S S S S S S S S . $ $ $ $ $ $ $ $ $ $ $ $ $ $ $ $ $ $ $ $ $ $ $ $ $ $ $ $ $ $ . S S S S S S S S S S S S S S S S S S S ",
"S S S S S S S S S S S S S S S S S . $ $ $ $ $ $ $ $ $ $ $ $ $ $ $ $ $ $ $ $ $ $ $ $ $ $ $ $ $ $ . S S S S S j j S S j j S S S S S S S S ",
"S S S S S S S S S S S S S S S S S . $ $ $ . . . $ $ $ $ $ $ $ $ $ $ $ $ $ $ $ $ $ $ . . . $ $ $ . S S S F f q q j j q q f F S S S S S S ",
"S S S S S S S S S S S S S S S S S . o o . X X X . o o o o o . . . . . . o o o o o . X X X . o o . S S S f U ( / G G / ( U f S S S S S S ",
"S S S S S S S S S S S S S S S S S . $ $ . X X X . $ $ $ $ . X X X X X X . $ $ $ $ . X X X . $ $ . S S j q ( *.$.Y Y $.*.( q h S S S S S ",
"S S S S S S S S S S S S S S j j S . $ $ . X X X . $ $ $ . X X X X X X X X . $ $ $ . X X X . $ $ . S S j q / %.-.{ { -.%./ q h S S S S S ",
"S S S S S S S S S S S S F f q q f . $ $ . $ $ $ . $ $ $ . X X X X X X X X . $ $ $ . $ $ $ . $ $ . S S S f L Q  .-.-. .W L f S S S S S S ",
"S S S S S S S S S S S A p L / ( U . o o o ) ) ) o o o o . X X X X X X X X . o o o o ) ) ) o o o . S S S F p 4 Q &.&.Q 4 p F S S S S S S ",
"S S S S S S S S S S F p 4 Q %.*.( . $ $ $ $ $ $ $ $ $ $ . X X X X X X X X . $ $ $ $ $ $ $ $ $ $ . S S S S A p L / / L p A S S S S S S S ",
"S S S S S S j j S S h L E | ;.%./ . $ $ $ $ $ $ $ $ $ $ . X X X X X X X X . $ $ $ $ $ $ $ $ $ $ . S S S S S F f q q f F S S S S S S S S ",
"S S S S F f q q f A w ~ +.%.} Q L . $ $ $ $ $ $ $ $ $ $ . X o o o o o o X . $ $ $ $ $ $ $ $ $ $ . S S S S S S S j j S S S S S S S S S S ",
"S S S S f U ( / L u 7 [ 3.,.~ , p F . . . . . . . . . . . o $ $ $ $ $ $ o . . . . . . . . . . . S S S S S S S S S S S S S S S S S S S S ",
"S S S j q ( *.%.Q , 5 ] >.:.` 7 f S v v . # # . v v v v v X $ # # # # $ X v v v v v . # # . v v S S S S S S S S S S S S S S S S S S S S ",
"S S S j q / %.;.| R i ` :.>.' 0 h S v v . $ $ . v v v v v X $ $ $ $ $ $ X v v v v v . $ $ . v v S S S S S S S S S S S S S S S S S S S S ",
"S S S S f L Q } %.O.T ~ <.2.[ 9 f S b l . $ $ . v v v v v X $ # # # # $ X v v v v v . $ $ . v v S S S S S S S S S S S S S S S S S S S S ",
"S S S S F p , ~ ,.1.^ R @.#.~ w j S l m . $ $ . c v v v v X $ $ $ $ $ $ X v v v x x . $ $ . v v S S S S S S S S S S S S S S S S S S S S ",
"S S S S S f 7 ` :.:.` p ! ~ U h S j < _ . $ $ . k b v v v X $ # # # # $ X v b l < < . $ $ . l b S S S S S S S S S S S S S S S S S S S S ",
"S S S S S h 0 ' >.>.] 6 9 q f F S j q V . $ $ . n z v v v X $ $ $ $ $ $ X v l m _ V . $ $ . m f S S S S S S S S S S S S S S S S S S S S ",
"S S S S S h 9 [ 2.2.[ 8 p j S S S S f L N . . ..B < x v v X $ # # # # $ X x < _ o.X.M . . o.( q h S S S S S S S S S S S S S S S S S S S ",
"S S S S S j w ~ #.#.~ w j S S S S S F p , ~ ,.3.[ 9 f S v X $ $ $ $ $ $ X x q / %.-.{ { -.%./ q h S S S S S S S S S S S S S S S S S S S ",
"S S S S S S h U ~ ~ U h S S S S S S S f 7 ` :.>.' 0 h S v X $ # # # # $ X v f L Q  .-.-. .W L f S S S S S S S S S S S S S S S S S S S S ",
"S S S S S S F f q q f F S S S S S S S h 0 ' >.>.' 0 h S v X $ $ $ $ $ $ X v F p 4 Q &.&.Q 4 p F S S S S S S S S S S S S S S S S S S S S ",
"S S S S S S S S j j S S S S S S S S S h 9 [ 2.2.[ 9 f S S v X X X X X X v S S A p L / / L p A S S S S S S S S S S S S S S S S S S S S S ",
"S S S S S S S S S S S S S S S S S S S j w ~ #.#.~ w j S S S S S S S S S S S S S F f q q f F S S S S S S S S S S S S S S S S S S S S S S ",
"S S S S S S S S S S S S S S S S S S S S h U ~ ~ U h S S S S S S S S S S S S S S S S j j S S S S S S S S S S S S S S S S S S S S S S S S ",
"S S S S S S S S S S S S S S S S S S S S F f q q f F S S S S S S S S S S S S S S S S S S S S S S S S S S S S S S S S S S S S S S S S S S ",
"S S S S S S S S S S S S S S S S S S S S S S j j S S S S S S S S S S S S S S S S S S S S S S S S S S S S S S S S S S S S S S S S S S S S ",
"S S S S S S S S S S S S S S S S S S S S S S S S S S S S S S S S S S S S S S S S S S S S S S S S S S S S S S S S S S S S S S S S S S S S ",
"S S S S S S S S S S S S S S S S S S S S S S S S S S S S S S S S S S S S S S S S S S S S S S S S S S S S S S S S S S S S S S S S S S S S ",
"S S S S S S S S S S S S S S S S S S S S S S S S S S S S S S S S S S S S S S S S S S S S S S S S S S S S S S S S S S S S S S S S S S S S "
};
