/* XPM */
static char *result[] = {
/* columns rows colors chars-per-pixel */
"68 64 85 1 ",
"  c #A5C364",
". c #A6C364",
"X c #AAC666",
"o c #ABC666",
"O c #ACC767",
"+ c #AEC867",
"@ c #AEC868",
"# c #B8CF62",
"$ c #B5CD6B",
"% c #B6CD6B",
"& c #B7CE6C",
"* c #B9D064",
"= c #BAD166",
"- c #BBD167",
"; c #BBD168",
": c #BCD168",
"> c #BCD169",
", c #BCD269",
"< c #BDD26A",
"1 c #BDD26B",
"2 c #B9D06D",
"3 c #BAD06D",
"4 c #BBD06D",
"5 c #BBD16E",
"6 c #BDD26C",
"7 c #BED36C",
"8 c #BED36D",
"9 c #BCD26E",
"0 c #BDD26E",
"q c #BDD26F",
"w c #BFD36E",
"e c #BED36F",
"r c #BFD36F",
"t c #BFD46F",
"y c #BFD370",
"u c #BFD470",
"i c #C0D46F",
"p c #C0D470",
"a c #C1D570",
"s c #C0D471",
"d c #C1D571",
"f c #C2D571",
"g c #C2D671",
"h c #C3D671",
"j c #C1D573",
"k c #C2D573",
"l c #C4D672",
"z c #C4D772",
"x c #C2D574",
"c c #C3D674",
"v c #C4D677",
"b c #C4D777",
"n c #C5D778",
"m c #C6D879",
"M c #C6D87A",
"N c #C7D97C",
"B c #C8D97D",
"V c #C8D97E",
"C c #C9D97E",
"Z c #C9DA7F",
"A c #CADA80",
"S c #CADA81",
"D c #CBDB81",
"F c #CBDB82",
"G c #CEDD87",
"H c #D1DE8A",
"J c #D1DF8A",
"K c #D1DF8B",
"L c #DBE598",
"P c #DBE699",
"I c #DBE69A",
"U c #DCE69A",
"Y c #DEE79C",
"T c #DEE79D",
"R c #DEE89E",
"E c #DFE89F",
"W c #E0E9A0",
"Q c #E1E9A1",
"! c #E4EBA4",
"~ c #E4EBA5",
"^ c #E5ECA6",
"/ c #E5ECA7",
"( c #E6ECA7",
") c #E6EDA7",
"_ c #E6EDA8",
/* pixels */
"pppppppppppppppppppppppppppppppppppppppppppppppppppppppppppppppppppp",
"pppppppppppppppppppppppppppppppppppppppppppppppppppppppppppppppppppp",
"pppppppppppppppppppppppppppppppppppppppppppppppppppppppppppppppppppp",
"pppppppppppppppppppppppppppppppppppppppppppppppppppppppppppppppppppp",
"ppppppppppppppppppppppppffppppppppppppppppppppppppffppffpppppppppppp",
"ppppppppppppppppppppppay54rppppppppppppppppppppppr45uu54rppppppppppp",
"pppppppppppppppppppppal0Oo4fppppppppppppppppppppf4oOeeOo4fpppppppppp",
"pppppppppppppppppppppyq%XO5fppppppppppppppppppppf5OX&&XO5fpppppppppp",
"ppppppppppppppppppppf5@O%9rppppppppppppppppppppppy0$XX$0yppppppppppp",
"ppppppppppppppppppppg2 .5zappppppppppppppppppppppal0OO0lappppppppppp",
"ppppppppffppppppppppg2  3hppppppppppppppppppppppppay55yapppppppppppp",
"pppppppr45yappppppppf5++5fppppppppppppppppppppppppppffpppppppppppppp",
"ppppppf4oO0lappppppppr55rppppppppppppppppppppppppppppppppppppppppppp",
"ppppppf5OX%qyppppppppaffpppppppppppppppppppppppppppppppppppppppppppp",
"pppppppr9%O@5fppppppffappppppppppppppppppppppppppppppppppppppppppppp",
"pppppppaz5. 2gppppay54rppppppppppppppppppppppppppppppppppppppppppppp",
"pppppppph3  2gpppal0Oo4fpppppppppppppppppppppppppppppppppppppppppppp",
"ppppppppf5++5fpppyq%XO5fpppppppppppppppppppppppppppppppppppppppppppp",
"pppppppppr55rpppf5@O%9rpppppppppppppppffppffpppppppppppppppppppppppp",
"ppppppppppffppppg2 .5zappppppppppppppr45uu54rppppppppppppppppppppppp",
"ppppppppppppppppg2  3hppppppppppppppf4oOeeOo4fpppppppppppppppppppppp",
"ppppppppppppppppf5++5fppppppppppppppf5OX&&XO5fpppppppppppppppppppppp",
"pppppppppppppppppr55rppppppppppppppppy0$XX$0yppppppppppppppppppppppp",
"ppppppppppppppppppffpppppppppppppppppal0OO0lappppppppppppppppppppppp",
"ppppppppppppppppppppppppppppppppppppppay55yapppppppppppppppppppppppp",
"ppppppppppppppppppppppppppppppppppppppppffpppppppppppppppppppppppppp",
"pppppppppppppppppppppppppppppppppppppppppppppppppppppppppppppppppppp",
"pppppppppppppppppppppppppppppppppppppppppppppppppppppppppppppppppppp",
"pppppppppppppppppppppppppppppppppppppppppppppppppppppppppppppppppppp",
"pppppppppppppppppppppppppppppppppppppppppppppppppppppppppppppppppppp",
"pppppppppppppppppppppppppppppppppppppppppppppppppppppppppppppppppppp",
"pppppppppppppppppppppppppppppppppppppppppppppppppppppppppppppppppppp",
"pppppppppppppppppppppppppppppppppppppppppppppppppppppppppppppppppppp",
"pppppppppppppppppppppppppppppppppppppppppppppppppppppppppppppppppppp",
"pppppppppppppppppppppppppppppppppppppppppppppppppppppppppppppppppppp",
"ppppppppppppppppppppppppppppppppppppppppppppppppppppppttppttpppppppp",
"ppppppppppppppppppppppppppppppppppppppppppppppppppppsw<<tt<<wspppppp",
"ppppppppppppppppppppppppppppppppppppppppppppppppppppwxZCddCZxwpppppp",
"pppppppppppppppppppppppppppppppppppppppppppppppppppt<ZEYccYEZ<rppppp",
"ppppppppppppppttpppppppppppppppppppppppppppppppppppt<CTWGGWTC<rppppp",
"ppppppppppppsw<<wsppppppppppppppppppppppppppppppppppwkMKWWKmkwpppppp",
"pppppppppppi8kCZxwpppppppppppppppppppppppppppppppppps8*MRRM*8spppppp",
"pppppppppps8*MTEZ<rppppppppppppppppppppppppppppppppppi8kCCk8ippppppp",
"ppppppttpprknJQTC<rpppppppppppppppppppppppppppppppppppsw<<wspppppppp",
"ppppsw<<wi1BPTHMkwppppppppppppppppppppppppppppppppppppppttpppppppppp",
"ppppwxZCk6;F_^B#8spppppppppppppppppppppppppppppppppppppppppppppppppp",
"pppt<ZETM#=D~!A;wppppppppppppppppppppppppppppppppppppppppppppppppppp",
"pppt<CTQJb7A!~S,rpppttpppppppppppppppppppppppppppppppppppppppppppppp",
"ppppwkMHTLvB/)F>wpsw<<wspppppppppppppppppppppppppppppppppppppppppppp",
"pppps8#B^(VbIUB1tpwxZCk8ipppppppppppppppttppttpppppppppppppppppppppp",
"pppppw;A!!A8NBxrpt<ZETM*8sppppppppppppsw<<tt<<wspppppppppppppppppppp",
"pppppr,S~~D-><wspt<CTQJnjrppppppppppppwxZCddCZxwpppppppppppppppppppp",
"pppppr>F))F:8tppppwkMHTPB1tppppppppppt<ZEYccYEZ<rppppppppppppppppppp",
"pppppt1BUUB1tppppps8#B^_F>wppppppppppt<CTWGGWTC<rppppppppppppppppppp",
"pppppprxBBxrpppppppw;A!~S,rpppppppppppwkMKWWKmkwpppppppppppppppppppp",
"ppppppsw<<wspppppppr,S~~S,rppppppppppps8*MRRM*8spppppppppppppppppppp",
"ppppppppttpppppppppr>F))F>wppppppppppppi8kCCk8ippppppppppppppppppppp",
"pppppppppppppppppppt1BUUB1tpppppppppppppsw<<wspppppppppppppppppppppp",
"pppppppppppppppppppprxBBxrppppppppppppppppttpppppppppppppppppppppppp",
"ppppppppppppppppppppsw<<wspppppppppppppppppppppppppppppppppppppppppp",
"ppppppppppppppppppppppttpppppppppppppppppppppppppppppppppppppppppppp",
"pppppppppppppppppppppppppppppppppppppppppppppppppppppppppppppppppppp",
"pppppppppppppppppppppppppppppppppppppppppppppppppppppppppppppppppppp",
"pppppppppppppppppppppppppppppppppppppppppppppppppppppppppppppppppppp"
};
