/* XPM */
static char *result[] = {
/* columns rows colors chars-per-pixel */
"68 64 132 2 ",
"   c #5F7A79",
".  c #786E6B",
"X  c #7C726B",
"o  c #617D79",
"O  c #90625D",
"+  c #92695F",
"@  c #9D6E5C",
"#  c #A3745D",
"$  c #AB7A5A",
"%  c #827669",
"&  c #857969",
"*  c #967561",
"=  c #9E7867",
"-  c #A37560",
";  c #AD7F61",
":  c #6C8677",
">  c #65817A",
",  c #6C8578",
"<  c #66887A",
"1  c #6B8D7C",
"2  c #748E75",
"3  c #718C7C",
"4  c #6E967C",
"5  c #779176",
"6  c #799177",
"7  c #74927C",
"8  c #7A957A",
"9  c #739A7E",
"0  c #7C9878",
"q  c #B2845F",
"w  c #858C70",
"e  c #829B75",
"r  c #A78465",
"t  c #AC8566",
"y  c #B38662",
"u  c #B58962",
"i  c #B98C64",
"p  c #B78C68",
"a  c #A99D66",
"s  c #A29568",
"d  c #BD9267",
"f  c #BC9168",
"g  c #A68D74",
"h  c #9DBA66",
"j  c #99B56B",
"k  c #87A175",
"l  c #8DA474",
"z  c #86A17C",
"x  c #8BA578",
"c  c #90A775",
"v  c #92AA75",
"b  c #9CB274",
"n  c #BFA56E",
"m  c #BAAC6E",
"M  c #ADB76B",
"N  c #A1BD69",
"B  c #AEBC6B",
"V  c #B9B46F",
"C  c #A4BA73",
"Z  c #A9BE72",
"A  c #B7BB71",
"S  c #B6BE7C",
"D  c #B8BE78",
"F  c #C0976A",
"G  c #C49A6C",
"H  c #C1A36E",
"J  c #A5C364",
"K  c #ABC667",
"L  c #AEC867",
"P  c #ADC36B",
"I  c #AEC868",
"U  c #B3C866",
"Y  c #B8CF62",
"T  c #B1C46C",
"R  c #BBC76D",
"E  c #B6CC6C",
"W  c #BACE6C",
"Q  c #BAD065",
"!  c #BED26D",
"~  c #ACC172",
"^  c #B3C473",
"/  c #B5CA71",
"(  c #BACF70",
")  c #B8C77A",
"_  c #BBC97D",
"`  c #BED270",
"'  c #BFD07B",
"]  c #C0D46F",
"[  c #C0D470",
"{  c #C4D57C",
"}  c #C6D87B",
"|  c #C9D97E",
" . c #708E80",
".. c #739081",
"X. c #779D80",
"o. c #7B9D82",
"O. c #7BA281",
"+. c #82A585",
"@. c #85A986",
"#. c #88AD87",
"$. c #89AC89",
"%. c #8DB28A",
"&. c #92B58C",
"*. c #97BB8E",
"=. c #98BD8F",
"-. c #9ABE90",
";. c #9DC291",
":. c #BCC684",
">. c #BCCA82",
",. c #A1C793",
"<. c #A4CA94",
"1. c #A9CE96",
"2. c #ABD197",
"3. c #AED499",
"4. c #B1D699",
"5. c #B6D999",
"6. c #BCDC9A",
"7. c #C0CE84",
"8. c #C2CD8A",
"9. c #C4D382",
"0. c #CBDB82",
"q. c #D1DF8A",
"w. c #CBD497",
"e. c #CED59B",
"r. c #C0DF9A",
"t. c #D0D79D",
"y. c #D3DA9D",
"u. c #C2E09A",
"i. c #DCE69C",
"p. c #DFE89F",
"a. c #D4DAA3",
"s. c #E3EBA4",
/* pixels */
"[ [ [ [ [ [ [ [ [ [ [ [ [ [ ] [ [ [ [ [ [ ] [ [ [ [ [ [ [ [ [ [ [ [ ] [ [ [ [ [ [ [ [ [ [ [ [ [ [ [ [ [ [ [ [ [ [ [ [ [ [ [ [ ! [ [ [ [ ",
"[ [ [ [ [ [ [ [ [ [ [ [ [ [ [ ` [ [ [ [ [ [ ] [ [ [ [ [ [ [ [ ] [ [ [ [ [ [ [ ` [ [ [ [ ] [ [ [ [ ] [ [ [ [ [ [ [ [ [ [ [ [ [ [ [ [ ] [ ",
"] [ [ [ ] [ [ [ [ [ [ [ [ [ [ [ [ [ ] [ [ [ [ [ [ ] [ [ [ [ ] [ [ [ [ [ [ [ [ [ [ [ [ [ [ [ [ [ [ [ [ [ [ [ [ [ [ [ [ [ [ [ [ [ [ [ [ [ ",
"[ [ [ [ [ [ ` [ ] [ [ [ [ [ [ [ [ [ [ [ [ ` [ [ [ [ [ [ [ ` [ [ [ [ [ [ [ [ [ ] [ [ ] [ [ [ [ [ [ [ [ [ [ ` [ ` [ [ [ [ [ [ [ [ ] [ [ [ ",
"[ ` [ [ [ [ [ [ [ [ [ [ [ [ [ [ [ [ [ [ [ [ [ ] [ [ [ [ [ [ [ [ [ [ [ [ [ [ [ [ [ [ [ [ [ [ [ [ [ ] [ [ [ [ ` [ [ [ [ [ [ [ [ [ [ [ [ [ ",
"[ [ [ [ [ [ [ [ [ ` [ [ ] [ [ [ [ [ [ [ [ [ [ ] ! W ] [ [ [ [ [ [ [ [ ] [ [ [ [ [ [ [ [ [ [ [ [ [ ! ! W [ [ ! ! ! [ [ [ [ [ [ [ [ [ [ [ ",
"[ [ [ [ [ [ [ [ ] [ [ [ [ [ [ [ [ [ [ [ [ [ [ ] K j C Z Z Z Z Z Z Z Z Z Z Z Z Z ` ] [ [ [ [ [ [ [ W K K ` ` I K ! [ [ [ [ [ [ [ [ [ [ ] ",
"[ [ [ ] [ [ [ ] [ [ [ ] [ [ [ [ [ [ ] [ [ [ ! E N o o o                 o o o o ^ [ [ [ [ [ [ [ [ ` I K E W K K ! [ [ [ [ [ [ [ [ [ ` [ ",
"[ ` [ [ [ [ [ [ [ [ [ [ [ [ [ [ [ [ [ [ [ ! P e 6 $.$.$.*.-.-.-.-.-.-.-.-.-.&.$.8 3 6 b [ [ [ [ [ ` ! W K K W ] ` [ [ [ [ [ [ [ [ [ [ [ ",
"[ [ [ [ [ [ [ [ [ [ [ [ [ [ [ [ [ [ [ ` ` E h 2 < &.-.-.2.4.3.3.2.4.4.4.4.3.,.*. .  o v ( ( [ [ [ [ [ ` K K ! [ [ [ [ [ [ [ [ [ [ [ [ [ ",
"[ [ [ [ [ [ [ [ [ [ [ [ [ [ [ [ ` [ [ / 1 , , @.&.2.4.6.6.6.3.4.r.r.6.r.6.3.2.2.<.,.&.+., , 6 ( [ [ [ ` ! ! ` [ [ [ [ [ [ [ [ [ [ [ ] [ ",
"[ ] [ [ [ [ [ ` ! ! ` [ [ [ [ [ ` ` D C 3 1  .&.;.4.6.r.r.r.4.5.r.r.r.r.6.3.4.3.3.1.-.$. . ...C ( [ [ ` [ ` [ [ [ [ [ [ [ [ [ [ [ [ [ [ ",
"[ [ [ [ [ [ [ ! K K ` [ [ [ [ [ ` ( > o &.*.-.1.4.3.5.r.u.6.4.4.r.r.u.u.r.4.3.3.3.3.4.4.2.-.&.o c ` ` [ [ [ [ [ [ [ [ [ [ [ [ [ [ [ [ [ ",
"[ [ [ [ [ ` [ ! L K E ! ` [ [ [ S c o.+.,.,.,.1.3.3.5.5.6.5.3.4.6.r.r.r.6.6.4.4.5.5.5.r.5.<.-.o.z c ( [ [ [ [ [ [ [ ] [ [ [ [ [ [ [ [ [ ",
"[ ] [ [ [ [ [ ` ! E K I ! [ [ ` c > %.-.3.3.3.3.3.4.4.4.3.3.3.3.4.6.r.r.r.u.6.4.r.r.r.r.r.4.2.-.o.o C ` ! ` [ [ [ [ [ [ [ [ ` [ [ [ [ [ ",
"[ [ [ [ [ [ [ [ [ ! J J ! [ Z , o.%.*.-.3.3.3.3.4.r.6.r.u.6.4.3.2.4.4.r.r.r.r.r.r.r.r.r.r.4.2.-.*.%.7 7 ` [ [ [ [ [ [ [ [ [ [ [ [ [ ] ` ",
"[ [ [ [ [ [ [ [ [ ! J J W [ Z o o.*.*.-.4.4.4.4.4.u.u.u.u.r.3.3.3.3.3.6.6.r.r.u.u.u.r.6.6.4.3.;.;.,. ., ( [ [ [ [ [ [ [ [ [ [ [ [ [ [ [ ",
"[ [ [ ! [ [ [ [ [ ! U I ` [ C o o.*.*.-.r.r.r.r.r.r.u.u.u.6.4.3.3.3.3.4.4.4.5.u.u.6.4.4.3.4.3.2.2.2. ., / [ [ [ [ [ [ [ [ [ [ [ [ [ [ [ ",
"[ [ [ [ [ [ [ [ [ [ ( ! ` v x o.%.,.,.1.r.u.e.u.u.6.5.6.6.5.3.3.3.3.3.3.3.3.4.5.6.4.3.3.3.3.3.3.4.3.$.o.v C [ [ [ [ [ [ [ [ [ [ ] [ [ [ ",
"[ [ [ [ [ [ [ [ [ [ [ [ ( : 1 -.,.3.3.4.r.u.6.u.6.4.3.3.3.3.3.3.3.3.3.3.3.3.3.3.3.3.3.3.3.3.3.3.3.3.;.%.o 8 [ [ [ [ [ [ [ [ [ [ [ [ [ [ ",
"[ [ [ ! [ [ [ [ [ [ [ [ ( >  .*.;.3.3.3.4.4.4.5.4.3.3.3.3.3.3.3.3.3.3.3.3.3.3.3.3.3.3.3.3.3.3.2.3.3.;.&.o 6 [ [ [ [ [ [ [ [ [ [ [ [ [ [ ",
"[ [ [ [ [ [ [ [ [ [ [ [ ( , , *.,.3.1.3.3.3.3.3.2.2.2.2.3.3.3.3.3.3.3.3.3.3.3.3.3.3.3.3.3.4.3.3.2.2.-.&.o 6 [ [ [ [ [ [ [ [ [ [ [ [ [ [ ",
"[ [ [ [ [ [ [ [ [ [ [ [ ( ,  .*.*.*.*.;.3.3.3.;.=.=.=.=.1.3.3.3.3.3.3.3.3.3.,.*.*.;.3.3.4.2.4.=.-.-.*.%.o ..[ [ [ [ [ [ [ [ [ [ [ ] [ [ ",
"[ [ [ [ [ [ [ [ [ [ [ [ [ v x o.$.*.*.*.3.3.3.;.*.*.*.=.1.3.3.3.3.3.3.3.3.4.,.*.*.;.3.3.2.4.1.=.*.*.*.%.o w [ [ [ [ [ [ [ [ [ [ [ [ [ [ ",
"[ [ [ [ [ [ [ ] [ [ [ [ [ [ Z   o.*.*.-.2.2.2.-.*.*.*.*.<.3.3.4.3.3.3.3.3.3.;.;.*.,.1.4.3.3.1.*.*.*.*.&.o 6 [ [ [ [ [ [ [ ! [ [ [ ] [ [ ",
"[ [ [ [ [ [ [ ] ` [ [ [ [ [ Z   o.*.*.-.;.;.,.1.1.1.1.1.,.,.3.2.4.;.;.;.;.;.;.*.=.=.;.;.;.;.,.*.*.*.*.&.o 6 [ [ [ [ [ [ [ [ [ [ [ [ [ ` ",
"[ [ [ [ [ [ [ [ [ [ [ [ [ / C > O.*.*.*.*.*.=.1.2.2.2.2.;.=.1.2.3.;.&.*.*.&.&.*.-.-.-.*.=.=.=.*.*.*.&.$.3 e [ [ ] [ [ [ [ [ [ [ [ [ [ [ ",
"[ [ [ [ [ [ [ [ [ [ [ [ ( 3  .&.*.*.*.*.*.*.*.*.=.=.*.-.=.*.=.=.;.;.*.*.*.;.&.;.1.2.2.3.1.=.*.*.*.*. ., / ( [ [ [ [ [ [ [ [ [ [ [ [ [ [ ",
"[ [ [ ` [ [ [ [ [ [ [ [ ! : < *.-.*.*.*.*.*.*.=.*.*.*.*.*.*.*.=.*.*.*.*.*.*.;.*.1.1.1.1.1.-.*.*.*.*.3 , ( [ [ [ [ [ [ [ [ [ [ [ [ [ ] [ ",
"[ [ ] [ [ [ [ [ [ [ [ [ ` :  .*.*.*.*.*.*.*.*.*.*.*.*.*.=.*.*.*.*.*.*.*.*.*.*.*.*.*.*.*.*.*.*.*.*.*.1 , ` [ [ [ [ [ [ [ [ [ [ [ [ [ [ [ ",
"[ [ [ [ [ [ [ [ [ [ [ [ ( : > X.$.-.*.-.*.*.*.*.*.=.*.*.*.*.*.*.*.*.;.*.*.*.*.*.*.*.*.*.*.*.*.*.*.*.o.1 6 e [ [ ! [ [ [ [ [ [ [ [ [ [ [ ",
"[ [ [ [ [ [ [ [ [ [ [ [ ( : > 4 O.&.&.&.&.&.&.&.&.*.*.*.*.*.*.*.*.&.&.&.&.&.&.*.*.*.&.&.&.*.*.&.&.&.X.1 o 6 [ [ [ [ [ [ [ [ [ [ [ [ [ [ ",
"[ [ [ [ [ [ [ [ [ [ [ [ ! , > 4 9 9 9 9 9 9 9 9 9 *.;.*.*.*.;.*.*.O.9 9 9 9 @.*.*.%.9 9 9 &.&.9 9 9 4 4 o 6 ! [ [ [ [ [ [ [ [ [ [ ` ] [ ",
"[ [ [ [ [ [ [ ] [ [ [ [ ( > > 4 4 4 9 4 9 4 4 4 9 &.*.*.*.*.&.*.*.O.4 4 4 4 O.*.*.%.9 4 9 &.&.9 9 4 4 1 o 6 [ [ [ [ [ [ [ [ [ [ [ [ [ [ ",
"[ [ [ [ [ [ [ [ [ [ ` [ ( : > 4 4 4 4 4 4 4 4 4 9 *.;.;.*.*.*.*.*.O.4 4 4 9 #.;.*.&.9 4 9 &.&.9 4 4 4 4 o 6 [ [ [ [ [ [ [ [ [ [ [ [ [ [ ",
"] [ ] ` [ [ [ [ [ [ ` ` ` ~ b > < 4 4 9 #.%.%.%.%.9 O.9 9 9 *.&.*.%.%.%.%.&.O.9 9 9 4 4 9 9 9 9 4 4 4 4 o 6 ] ] [ [ ! [ [ [ [ [ [ [ [ ] ",
"[ [ [ [ [ [ [ [ [ [ [ [ [ [ Z   < 4 4 9 &.;.%.&.%.9 4 4 4 9 &.;.&.;.&.*.*.&.O.9 9 4 9 9 9 9 4 4 4 4 4 1 > 0 ! Q ] ] Q ! ! [ [ [ [ [ [ [ ",
"[ [ [ [ [ [ [ [ [ [ [ [ [ [ Z   < 4 4 4 9 9 9 9 9 9 4 4 4 4 9 9 9 9 9 9 9 9 9 4 9 9 %.&.&.&.%.9 4 4 > : ~ W | | [ [ | | [ [ [ [ [ [ [ [ ",
"[ [ [ [ [ [ [ [ ` [ ] [ [ [ Z   < 4 4 4 4 4 4 4 4 4 4 4 4 4 4 4 4 4 4 4 4 4 4 4 4 9 %.%.$.%.#.4 4 4 o , Q 0.p.p.} [ p.p.| ! [ [ [ [ [ ] ",
"] [ [ [ [ ] [ [ [ [ [ [ ] ! Z   < 4 4 4 4 4 4 4 4 4 4 4 4 4 4 4 4 4 4 4 4 4 4 4 4 4 4 4 4 4 4 4 4 4 > , E | p.p.q.q.p.i.| ! ` [ [ [ [ [ ",
"[ [ [ [ [ [ [ [ [ [ [ [ [ ! E l 0 1 4 4 4 4 4 4 4 4 4 4 4 4 4 4 4 4 4 4 4 4 4 4 4 4 4 4 4 4 4 4 1 < k v ! [ } q.p.p.q.} ] ] ] ] [ [ [ [ ",
"` [ [ [ [ [ [ [ ] [ [ ] ] [ | | v < 4 4 4 4 4 4 4 4 4 4 4 4 4 4 4 4 4 4 4 4 4 4 4 4 4 4 4 4 4 4 < > ~ [ [ ! Q | p.p.} Q ! ] [ [ ` [ [ [ ",
"[ [ [ ] [ [ [ [ [ [ [ ] Q } i.p.' I 1 > o o   < 4 4 4 4 4 4 4 4 4 4 4 4 4 4 4 4 4 4 4 4 4 o     l ( ` [ [ [ ! [ | | ] ] ] [ [ [ [ [ [ [ ",
"[ [ [ [ [ [ ] ! [ ] ] [ } q.s.i.} Q 0 6 6 6 5 4 < 4 1 1 4 1 1 1 1 1 1 4 4 : 4 : < 4 < 4 4 7 6 5 b ` [ [ [ [ [ ! Q ] ] ] [ [ [ [ ] [ [ [ ",
"[ [ [ [ [ ! Q Q ] ] ! | i.i.q.} [ ! ` ` W ` / 5 o o o o   o o o > > o o o o > o >   o o > ^ ` ` ` [ [ [ [ [ [ ] [ ! [ [ [ [ [ ] [ [ [ [ ",
"[ [ [ [ ! } 0.0.] ! Q 0.s.s.| Q ` ` ` [ ` [ ! b c c w . % & & & X X & X & & X X l l c c v W [ [ [ [ [ [ [ [ [ [ [ [ [ ] [ [ [ [ [ [ [ [ ",
"[ [ ] ! Q | p.p.} Y Q 0.s.s.0.Q ! [ [ [ [ [ ` ` [ [ a O # $ $ $ r $ $ $ $ $ @ + Y ! ] [ [ [ ` [ [ [ [ [ [ [ [ [ [ [ [ [ [ [ [ [ [ [ [ [ ",
"[ [ ] ] ! | p.s.q.} ] 0.s.s.| ! [ [ [ [ [ ! [ [ [ [ a O $ q $ $ $ $ $ $ $ q @ + E ! ] ] [ [ [ [ [ [ [ [ [ [ [ [ [ [ [ [ [ [ [ [ ] [ [ [ ",
"[ [ [ [ ! [ | q.i.i.} | s.s.0.! ] [ [ [ ! ! [ [ [ [ a O ; y $ $ $ $ $ $ $ u - + R [ [ [ [ [ [ [ ` [ [ [ ] [ [ [ [ [ [ [ [ [ [ [ [ [ [ [ ",
"[ [ [ [ [ ! Q | s.s.0.[ i.i.| ! ! [ ! [ | | [ ! [ ^ s O ; i u u u u u u u u - + M / [ [ ! ] [ ] [ [ [ [ [ [ [ [ [ [ ` [ [ [ [ ] [ [ [ [ ",
"[ [ [ ] [ ] Q 0.s.s.0.] | | [ ] ] ] ! | p.i.{ U E ^ s O y f f f d i u d d u - + M ^ / ( E W ] ] [ [ [ [ [ [ [ [ [ [ [ [ [ [ [ [ ` ] [ [ ",
"[ [ [ [ [ ! ! 0.s.s.0.Q Q ! ] ] ] ! ! 0.p.y.8.) ^ ^ s O p G G G G i u G F u # + S _ ^ ^ _ 0.[ ] [ [ [ [ [ [ [ [ [ [ [ ] [ [ [ [ [ [ [ [ ",
"[ [ [ [ [ ! Q 0.s.s.0.! ! ] ] ] [ [ ! [ _ 8.e.w.S = r p F G G G G G d G G F d p ; $.H _ e.y.7.! ! [ [ [ [ [ [ [ [ [ [ [ [ [ [ ] ] [ [ [ ",
"[ [ [ [ [ [ ! 0.p.i.| ! ] ] [ ] [ [ [ ! K ) a.a.) * t G G G G G G G G G G G G F = g 7.7.t.t._ ! ] [ [ [ [ [ [ [ [ [ [ [ [ [ [ [ [ [ [ [ ",
"[ [ ] [ [ [ ! [ | | [ [ [ [ ] [ [ [ [ ] T >.a.a.:.B m G G G G G G G G G G G G G D 8.t.t.8.) ^ ` [ [ [ [ [ [ [ ] [ [ [ [ [ [ [ [ [ [ [ [ ",
"[ [ [ [ [ [ [ ] ! Q ! [ [ [ [ [ [ [ [ ] T _ a.a.>.P V n n n n H G G G H n n n H M ) e.t.) U / [ [ [ [ [ [ [ [ ` [ [ ] [ ` [ [ [ [ [ [ [ ",
"[ [ [ [ [ [ [ [ ] ] ] [ [ [ [ [ ! [ [ ! ! 9.t.a.>.T ^ ^ ^ ^ ^ A G G G ^ ^ ^ ^ ^ ^ ^ >._ ^ ! [ [ [ [ [ [ [ [ ! [ [ ] [ [ ] [ [ [ ] [ [ [ ",
"[ [ [ [ [ [ [ ] ] ] [ [ [ [ [ [ [ [ [ [ ! | i.i.{ P ^ ^ ^ ^ ^ A A A A ^ ^ ^ ^ ^ ^ / W W ( [ [ [ [ [ [ [ [ [ [ [ [ [ [ [ [ ` [ [ [ [ [ [ ",
"[ [ [ ] [ [ [ [ ] [ [ [ [ ] [ [ [ [ [ [ ! [ | | [ ^ ^ ^ ^ ^ ^ ^ ^ ^ ^ ^ ^ ^ ^ ^ ^ / ` ! [ [ [ [ [ [ [ [ [ [ [ [ [ [ [ [ [ [ [ [ [ [ [ [ ",
"[ [ [ [ [ [ [ [ ] [ [ [ [ [ [ [ [ [ [ [ [ ! ! ! ` [ ] [ ` ` [ [ ] ] ] [ [ [ ] ] [ [ [ [ [ [ [ [ [ [ [ [ [ [ [ [ [ [ [ [ [ ] [ [ [ [ ` [ ",
"` [ [ [ [ [ [ [ [ ] [ [ [ [ [ [ [ [ [ [ [ [ ` ` [ [ [ [ [ [ [ [ [ [ [ [ [ ` ] [ ] [ [ [ [ [ [ [ [ [ [ [ [ [ [ [ [ [ [ [ [ [ [ [ [ [ [ [ ",
"] [ [ [ [ ] [ ` [ [ [ [ [ [ [ [ [ [ [ [ [ [ [ [ [ [ [ [ [ [ [ ] [ [ [ [ [ [ [ [ [ [ [ [ ] [ [ [ [ [ [ [ [ [ [ [ [ ] [ ` [ [ [ [ [ [ [ ] ",
"[ [ [ [ [ [ [ [ [ [ [ [ [ [ [ [ [ [ [ [ [ [ [ [ [ [ [ [ ` [ ] [ [ [ ] [ [ [ [ [ [ [ [ [ [ [ [ [ [ [ [ [ [ ] [ [ [ [ [ [ [ [ [ [ [ [ [ [ ",
"] [ [ [ [ [ [ [ [ [ [ [ [ ] ` [ [ [ [ [ [ [ [ [ [ [ [ [ [ [ [ [ [ [ [ [ [ [ [ [ [ [ [ [ [ [ ` [ ] [ [ [ [ [ [ [ [ [ [ [ [ [ ] [ [ [ [ [ "
};
